<svg xmlns="http://www.w3.org/2000/svg" xmlns:xlink="http://www.w3.org/1999/xlink" width="87" height="122" viewBox="0 0 87 122">
  <defs>
    <polygon id="aak-byvaaben-mellem-negativ-a" points=".06 .801 86.283 .801 86.283 78.857 .06 78.857"/>
    <polygon id="aak-byvaaben-mellem-negativ-c" points=".06 .984 86.256 .984 86.256 58.013 .06 58.013"/>
  </defs>
  <g fill="none" fill-rule="evenodd">
    <path fill="#FFFFFE" d="M27.683 76.904C27.65 76.832 27.609 76.77 27.573 76.716 27.53 76.657 27.48 76.603 27.42 76.55 27.42 76.55 26.985 76.74 26.806 76.999 26.452 77.498 27.156 78.611 27.156 78.611 26.566 78.414 26.201 77.921 26.185 77.582 26.172 77.126 26.6 76.109 26.6 76.109 26.732 75.7 26.873 75.121 27.011 74.52 27.151 73.93 27.283 73.325 27.48 72.619 27.881 71.232 28.465 69.664 28.797 68.266 29.047 67.24 29.234 66.334 29.296 65.72 29.446 64.221 29.627 61.402 29.73 59.547 29.788 58.556 29.769 58.805 29.769 58.725 29.769 58.486 29.908 55.977 31.103 54.931 31.891 54.246 32.632 54.362 33.537 53.93 33.537 53.93 32.242 53.4 30.647 53.754 30.647 53.754 27.894 55.917 26.586 65.57 26.586 65.57 24.977 74.552 24.924 75.468 24.9 75.945 25.348 78.216 25.348 78.216 25.348 78.216 26.746 78.821 27.04 78.763 27.221 78.7 27.467 78.684 27.881 78.572 28.291 78.454 28.546 78.427 29.252 78.657 27.573 77.907 27.908 77.324 27.683 76.904M39.391 44.671L41.049 44.732C41.543 44.749 41.842 44.602 41.813 44.278 41.789 44.014 41.088 43.878 41.088 43.878L39.885 44.064C39.885 44.064 39.743 44.575 39.391 44.671M55.059 53.426C55.059 53.291 54.814 51.25 54.814 49.693 54.808 48.895 54.796 48.229 54.789 48.007 54.767 47.535 54.299 47.752 54.206 47.933 53.976 48.357 53.875 48.266 53.875 48.266 53.875 48.266 53.73 48.241 53.703 48.653 53.643 48.352 53.607 48.377 53.52 48.288 53.179 47.964 52.992 49.097 52.992 49.097 52.992 49.097 52.962 49.329 52.945 49.893 52.941 50.011 52.935 50.157 52.935 50.305 52.935 50.883 52.986 51.951 53.34 52.737 53.406 52.867 53.486 52.913 53.591 52.923 53.591 52.923 53.478 53.721 53.73 54.109 54.201 54.839 54.455 54.672 54.455 54.672 55.297 53.976 55.064 53.716 55.059 53.426M35.373 51.517C35.373 51.941 35.527 52.332 35.776 52.662 35.352 53.055 34.863 53.586 34.771 53.708 34.589 53.945 34.215 54.051 34.215 54.051 34.215 54.051 33.814 56.476 34.721 56.152 34.721 56.152 34.863 55.569 35.352 55.677 36.17 55.854 36.389 55.543 36.72 55.288 36.94 55.123 37.6 55.258 37.6 55.258 38.114 55.147 38.723 55.398 38.827 54.931 38.823 54.865 38.809 54.813 38.809 54.813 38.398 54.473 37.23 54.636 37.23 54.636 37.23 54.636 37.41 54.564 37.66 54.53 37.743 54.514 37.906 54.535 37.92 54.398 37.92 54.398 38.021 54.4 38.555 54.562 38.986 54.697 39.014 54.482 39.041 54.398 39.03 54.234 38.909 54.121 38.909 54.121 38.909 54.121 38.344 53.887 38.073 53.839 37.809 53.798 37.068 53.897 37.068 53.897 37.068 53.897 37.096 53.866 37.524 53.776 37.68 53.742 37.834 53.742 37.82 53.609 37.82 53.609 38.128 53.637 38.541 53.839 38.825 53.979 38.965 53.974 39.044 53.93 39.071 53.884 39.14 53.825 39.15 53.783 39.15 53.75 39.15 53.716 39.15 53.687 39.115 53.448 38.894 53.354 38.894 53.354 38.894 53.354 38.014 53.041 37.775 53.017 37.54 52.985 36.771 53.179 36.771 53.179 36.966 53.041 37.182 53.024 37.429 52.98 37.775 52.913 37.731 52.725 37.731 52.725 37.731 52.725 37.805 52.834 38.5 53.039 38.691 53.099 39.189 53.354 39.044 52.899 39.006 52.84 38.918 52.737 38.825 52.658 39.046 52.347 39.186 51.97 39.194 51.556 39.215 50.485 38.367 49.594 37.311 49.57 37.182 49.57 37.059 49.618 36.928 49.642 36.928 49.642 36.932 49.642 36.932 49.637 36.433 50.343 35.817 51.002 35.373 51.517M36.603 50.804C36.791 50.625 37.034 50.524 37.296 50.527 37.834 50.539 38.262 50.992 38.253 51.535 38.248 51.855 38.087 52.12 37.854 52.296 37.759 52.265 37.68 52.25 37.66 52.235 37.572 52.183 37.077 52.216 36.613 52.229 36.603 52.218 36.59 52.211 36.578 52.2 36.398 52.011 36.303 51.76 36.307 51.5 36.316 51.235 36.414 50.985 36.603 50.804M36.684 77.266C35.732 76.574 33.208 77.76 33.208 77.76 33.208 77.76 32.75 78.821 33.682 78.804 34.187 78.796 35.055 78.85 35.742 78.7 36.293 78.585 37.139 78.801 37.866 78.813 38.96 78.51 36.684 77.266 36.684 77.266M21.87 71.734C21.667 72.941 21.209 75.043 21.137 75.802 21.072 76.558 21.045 77.907 21.045 77.907 21.33 78.076 21.687 78.208 21.817 78.274L23.227 66.752C23.227 66.752 22.079 70.531 21.87 71.734"/>
    <mask id="aak-byvaaben-mellem-negativ-b" fill="#fff">
      <use xlink:href="#aak-byvaaben-mellem-negativ-a"/>
    </mask>
    <path fill="#FFFFFE" d="M39.93,43.896 L41.088,43.878 C41.915,43.936 42.164,43.585 41.853,43.247 C41.691,43.069 40.514,43.081 40.514,43.081 L39.734,43.353 C39.734,43.353 40.127,43.437 39.93,43.896" mask="url(#aak-byvaaben-mellem-negativ-b)"/>
    <path fill="#FFFFFE" d="M83.584,54.6 L83.166,30.347 L84.872,30.347 L77.506,15.748 C78.241,15.379 78.75,14.615 78.75,13.735 C78.75,12.494 77.735,11.479 76.491,11.479 C75.247,11.479 74.235,12.494 74.235,13.735 C74.235,14.615 74.741,15.379 75.473,15.748 L68.11,30.347 L69.816,30.347 L69.693,37.447 L69.247,35.738 C67.773,30.018 62.584,25.795 56.412,25.795 C56.301,25.795 56.188,25.798 56.086,25.803 C55.064,20.975 51.41,17.112 46.707,15.79 L46.707,11.026 L47.414,11.026 L43.934,4.135 C44.511,3.841 44.906,3.248 44.906,2.565 C44.906,1.591 44.116,0.801 43.144,0.801 C42.172,0.801 41.382,1.591 41.382,2.565 C41.382,3.248 41.771,3.841 42.35,4.135 L38.869,11.026 L39.58,11.026 L39.58,15.79 C34.877,17.112 31.227,20.975 30.201,25.803 C30.094,25.798 29.982,25.795 29.873,25.795 C23.701,25.795 18.519,30.018 17.039,35.738 L16.592,37.447 L16.469,30.347 L18.17,30.347 L10.813,15.748 C11.547,15.379 12.049,14.615 12.049,13.735 C12.049,12.494 11.044,11.479 9.793,11.479 C8.549,11.479 7.542,12.494 7.542,13.735 C7.542,14.615 8.045,15.379 8.779,15.748 L1.414,30.347 L3.121,30.347 L2.704,54.6 L0.451,54.6 L0,78.857 L19.572,78.857 L19.153,54.6 L19.153,43.556 C19.153,41.803 19.609,39.162 20.102,37.419 C20.27,36.838 20.447,36.276 20.635,35.738 C21.998,31.946 25.621,29.237 29.873,29.237 C31.135,29.237 32.342,29.479 33.443,29.903 C33.387,29.464 33.35,29.018 33.35,28.558 C33.35,23.137 37.715,18.733 43.144,18.733 C48.566,18.733 52.935,23.137 52.935,28.558 C52.935,29.018 52.904,29.464 52.842,29.903 C53.946,29.479 55.149,29.237 56.412,29.237 C60.666,29.237 64.289,31.946 65.649,35.738 C65.844,36.276 66.017,36.838 66.183,37.419 C66.68,39.162 67.133,41.803 67.133,43.556 L67.133,54.6 L66.716,78.857 L86.283,78.857 L85.836,54.6 L83.584,54.6 Z M8.102,35.82 L8.104,35.82 L8.104,35.555 C8.17,34.671 8.9,33.976 9.793,33.976 C10.265,33.976 10.684,34.165 10.991,34.475 C11.271,34.759 11.454,35.129 11.483,35.555 L11.492,35.555 L11.492,45.127 L8.102,45.127 L8.102,35.82 Z M7.313,74.193 L3.924,74.193 L3.924,65.327 C3.924,65.284 3.924,65.24 3.932,65.2 C3.996,64.324 4.728,63.628 5.619,63.628 C6.508,63.628 7.236,64.324 7.305,65.2 C7.305,65.24 7.313,65.284 7.313,65.327 L7.313,74.193 Z M9.793,62.487 C8.385,62.487 7.236,61.345 7.236,59.935 C7.236,58.525 8.385,57.38 9.793,57.38 C11.206,57.38 12.346,58.525 12.346,59.935 C12.346,61.345 11.206,62.487 9.793,62.487 L9.793,62.487 Z M15.676,74.193 L12.293,74.193 L12.293,65.327 C12.293,65.284 12.293,65.24 12.297,65.2 C12.363,64.324 13.097,63.628 13.986,63.628 C14.879,63.628 15.607,64.324 15.672,65.2 C15.676,65.24 15.676,65.284 15.676,65.327 L15.676,74.193 Z M74.799,35.555 L74.803,35.555 C74.834,35.129 75.018,34.759 75.293,34.475 C75.6,34.165 76.024,33.976 76.491,33.976 C77.389,33.976 78.121,34.671 78.184,35.555 L78.184,35.82 L78.186,35.82 L78.186,45.127 L74.799,45.127 L74.799,35.555 Z M73.996,74.193 L70.605,74.193 L70.605,65.327 C70.605,65.284 70.61,65.24 70.614,65.2 C70.683,64.324 71.407,63.628 72.297,63.628 C73.193,63.628 73.921,64.324 73.992,65.2 C73.992,65.24 73.996,65.284 73.996,65.327 L73.996,74.193 Z M76.491,62.487 C75.083,62.487 73.935,61.345 73.935,59.935 C73.935,58.525 75.083,57.38 76.491,57.38 C77.902,57.38 79.048,58.525 79.048,59.935 C79.048,61.345 77.902,62.487 76.491,62.487 L76.491,62.487 Z M82.365,74.193 L78.969,74.193 L78.969,65.327 C78.969,65.284 78.977,65.24 78.977,65.2 C79.048,64.324 79.775,63.628 80.67,63.628 C81.561,63.628 82.288,64.324 82.358,65.2 C82.359,65.24 82.365,65.284 82.365,65.327 L82.365,74.193 L82.365,74.193 Z" mask="url(#aak-byvaaben-mellem-negativ-b)"/>
    <path fill="#FFFFFE" d="M46.632,48.485 C46.785,48.495 47.012,48.47 47.22,48.386 C47.568,48.232 48.067,47.788 48.279,47.328 C48.361,46.841 48.026,46.473 47.805,46.373 C47.627,46.294 47.516,46.304 47.329,46.366 C47.149,46.424 46.752,46.633 46.752,46.633 C46.88,46.506 46.82,46.248 46.82,46.248 C47.117,46.451 48.357,45.905 48.115,44.472 C48.067,44.175 48.023,44.098 48.026,43.941 C48.033,43.7 48.064,43.507 48.026,43.325 C47.98,43.069 48.12,42.593 48.092,42.36 C48.067,42.124 47.709,42.182 47.564,42.244 C47.066,42.468 47.049,43.274 46.994,43.527 C46.994,43.527 46.922,43.51 46.837,43.466 C46.725,43.423 46.711,43.338 46.584,43.216 C46.52,43.16 46.283,42.873 46.184,42.734 C46.082,42.599 45.371,41.82 45.055,41.528 C44.748,41.251 44.542,41.509 44.526,41.707 C44.502,41.933 45.111,42.785 45.111,42.785 C45.606,43.452 45.746,43.51 45.746,43.51 L45.613,43.613 C45.613,43.613 45.672,43.534 44.979,42.785 C44.895,42.7 44.26,41.806 44.01,41.552 C43.75,41.282 43.477,41.555 43.431,41.651 C43.271,41.989 44.306,43.223 44.306,43.223 C44.748,43.861 45.119,44.098 45.119,44.098 L44.969,44.23 C45.058,44.153 44.171,43.223 44.171,43.223 C43.809,42.849 43.521,42.375 43.248,42.167 C42.889,41.909 42.77,42.5 42.954,42.761 C43.022,42.852 43.15,43.102 43.402,43.45 C43.641,43.766 44.482,44.568 44.482,44.568 L44.4,44.631 C44.188,44.363 43.53,43.701 43.072,43.384 C42.615,43.066 42.487,43.476 42.602,43.7 C42.706,43.91 43.2,44.507 43.314,44.64 C43.436,44.775 44.33,45.423 44.392,45.516 C44.496,45.68 44.742,46.022 44.797,46.093 C44.904,46.238 45.224,46.696 45.418,46.851 C45.418,46.851 45.805,47.106 46.044,46.991 C45.825,47.607 46.033,48.304 46.632,48.485"/>
    <path fill="#FFFFFE" d="M45.098 74.767C45 75.304 44.895 75.918 44.844 76.186 44.408 78.619 44.939 79.498 44.939 79.498 44.939 79.498 45.746 78.857 46.162 76.42 46.381 75.169 47.168 70.693 47.89 66.626 47.678 64.688 47.562 62.858 48.04 62.418 48.33 62.154 48.891 61.706 48.735 61.832 49.011 60.287 49.188 59.257 49.188 59.257L51.435 60.103C50.515 60.463 49.916 60.954 49.231 61.446 47.9 63.514 48.435 66.236 48.582 67.149 48.751 68.222 48.248 69.822 48.248 69.822 48.48 72.397 48.908 73.905 48.908 73.905 48.908 73.905 49.443 75.248 50.416 75.579 50.416 75.579 49.38 75.417 49.213 75.084 49.213 75.084 48.949 75.344 48.847 75.607 48.847 75.607 47.869 76.27 48.218 76.88 47.869 77.228 47.851 77.292 47.413 77.569 46.982 77.845 46.905 77.905 46.165 78.208 45.921 78.31 45.593 78.51 45.494 78.684 45.459 78.818 45.563 78.842 45.593 78.796 45.734 78.615 45.957 78.517 45.957 78.517 45.645 78.684 45.658 78.869 45.757 78.949L45.805 78.965C45.868 78.982 45.982 78.965 46.107 78.731 46.162 78.618 46.279 78.517 46.543 78.43 46.475 78.472 45.982 78.676 46.194 78.989 46.506 79.127 46.666 78.715 46.73 78.649 46.949 78.43 47.141 78.427 47.466 78.343 46.766 78.546 46.695 78.667 46.889 78.992 47.045 79.159 47.477 79.183 47.857 79.033 48.493 79.026 49.421 78.524 50.002 78.496 50.23 78.476 50.23 78.502 50.597 78.618 50.809 78.684 51.426 78.684 51.537 78.476 51.926 77.736 50.629 76.907 50.398 76.796 50.171 76.681 49.614 76.287 49.614 76.287 49.614 76.287 50.361 76.705 50.986 76.916 51.447 77.095 51.748 77.15 51.846 77.162 52.719 77.275 53.15 76.842 53.976 76.777 55.942 74.993 56.316 74.079 56.934 71.349 57.188 70.264 57.626 68.596 57.736 67.303 57.662 69.013 57.668 69.492 57.703 70.116 57.758 71.155 57.863 74.586 57.785 75.149 57.703 75.709 57.407 75.841 57.407 75.841 57.407 75.841 57.906 77.135 59.032 77.28 59.297 77.307 59.604 77.28 59.941 77.15 59.941 77.15 61.061 77.994 62.696 77.45 62.954 77.362 63.228 77.237 63.523 77.066 63.715 76.953 63.74 68.14 63.643 66.971 63.578 66.178 63.503 65.959 63.268 65.583 62.97 64.944 62.412 64.42 62.412 64.42 62.412 64.42 62.081 64.218 62.127 63.649 62.201 62.759 62.32 62.835 62.617 63.22 63.161 63.956 63.134 64.652 63.268 65.583 63.268 65.583 63.532 65.942 63.906 66.597 64.118 66.971 64.027 67.655 64.063 68.222 64.063 68.222 64.118 76.075 64.088 76.842 64.189 76.56 64.433 76.266 64.433 76.266 64.433 76.266 64.458 66.576 64.191 64.517 64.121 63.987 63.872 63.743 63.811 63.286 63.626 61.899 63.578 61.53 63.223 61 63.223 61 63.633 61.331 64.012 62.266 64.269 62.902 64.474 63.808 64.686 65.081 64.815 65.801 65.082 66.923 65.082 66.923 65.297 63.662 64.662 62.301 64.662 62.301 64.458 61.738 64.118 60.923 63.773 60.371 63.414 59.775 63.049 59.317 62.956 59.177 61.578 56.931 61.395 56.23 60 53.528 58.605 50.826 58.95 48.555 58.95 48.555 58.95 48.555 59.213 49.526 59.562 49.816 59.682 49.91 59.986 50.55 59.855 51.388 59.811 51.635 59.891 52.434 60.604 53.877 61.477 55.63 62.242 56.992 62.754 57.626 63.228 58.214 63.482 58.141 63.482 58.141 63.228 56.064 61.445 49.392 61.445 49.392 61.445 49.392 62.119 49.798 62.412 50.982 62.514 51.377 62.703 52.68 63.059 54.072 63.537 55.979 64.952 61.027 65.041 61.169 64.528 57.801 64.681 57.801 64.354 56.454 64.156 55.634 64.239 54.478 64.08 53.349 63.838 51.597 63.77 51.019 63.746 50.684 63.547 47.331 62.494 47.115 62.494 47.115 62.97 45.843 62.359 45.513 62.359 45.513 62.083 45.327 61.482 45.123 61.268 45.221 60.826 45.508 60.936 44.86 60.498 45.074 60.225 45.207 59.538 45.434 59.538 45.434 60.832 44.438 60.29 44.136 60.29 44.136 59.107 45.759 57.462 45.597 57.462 45.597 56.966 45.645 56.482 45.638 56.199 45.605 55.997 45.581 55.879 45.758 55.795 45.966 55.768 45.93 55.737 45.882 55.696 45.86 55.797 45.715 55.879 45.573 55.614 45.38 55.517 45.311 55.453 45.235 55.406 45.159 55.406 45.159 55.19 44.701 55.382 44.363 55.532 44.11 55.748 43.926 55.748 43.58 55.393 43.558 54.876 43.691 54.682 43.908 54.481 44.122 54.348 44.302 54.086 44.542 53.867 44.763 53.73 45.036 53.613 45.486 53.512 45.899 54.028 46.118 54.028 46.118 54.028 46.118 52.969 45.978 53.6 45.089 53.498 45.188 53.087 45.345 52.836 45.535 52.582 45.732 52.439 46.248 52.285 46.52 52.128 46.797 51.868 47.35 51.713 47.53 51.559 47.707 51.075 48.664 51.113 48.986 51.256 48.762 51.774 48.533 51.774 48.533 52.021 48.446 52.199 48.413 52.442 48.446 52.691 48.475 52.691 48.533 53.123 48.135 53.541 47.741 53.668 47.253 54.184 46.916 54.51 46.706 54.947 46.53 55.245 46.367 55.266 46.484 55.334 46.573 55.432 46.603 55.516 46.627 55.598 46.6 55.667 46.544 55.628 46.914 55.568 47.545 55.557 48.147 55.553 48.461 55.557 48.763 55.589 49.023 55.71 50.066 55.922 50.551 56.049 51.042 56.049 51.042 55.382 49.955 55.303 49.377 55.303 49.377 55.256 53.022 55.628 53.783 55.385 53.983 55.163 54.166 55.095 54.21L54.98 54.294C54.851 54.395 54.559 54.607 54.559 54.607 54.531 54.62 54.493 54.639 54.455 54.672 54.168 54.846 53.563 55.203 53.434 55.253 53.287 55.323 53.107 55.288 52.85 55.288 52.588 55.288 52.458 55.454 52.295 55.615 52.295 55.615 51.602 55.743 51.426 55.634 51.308 55.565 50.884 55.268 50.559 55.032 50.403 54.921 50.275 54.825 50.211 54.767 50.528 54.672 50.788 54.497 50.836 54.241 50.859 54.084 50.795 53.93 50.697 53.783 50.708 53.783 50.704 53.783 50.713 53.781L49.614 53.173C50.416 53.084 50.576 53.267 50.932 52.952 51.347 52.581 51.941 52.058 52.459 51.635 52.979 51.204 52.842 50.413 52.943 49.893 53.006 47.979 51.113 48.986 51.113 48.986L50.952 49.468C50.922 49.56 50.644 49.632 50.576 49.587 51.948 50.503 51.178 51.597 51.178 51.597 51.178 51.597 51.774 50.517 50.636 50.185 49.228 49.772 48.908 48.528 48.721 48.273 48.283 47.696 47.908 48.387 47.55 48.495 47.295 48.572 47.195 48.596 46.632 48.485 46.26 48.446 46.058 48.154 45.945 47.955 45.822 47.741 45.846 47.388 45.846 47.388 45.846 47.388 45.444 47.771 45.77 48.311 46.096 48.851 46.365 49.772 46.451 50.09 46.539 50.407 46.813 51.317 48.356 53.166 48.356 53.166 48.432 53.234 48.539 53.335 48.346 53.446 48.201 53.59 48.166 53.776 48.119 54.068 48.313 54.367 48.658 54.574 48.655 54.598 48.644 54.627 48.644 54.646 48.298 54.796 47.944 54.977 47.846 55.042 47.559 55.236 47.397 55.384 47.354 55.558 47.354 55.808 47.507 55.824 47.818 55.634 47.9 55.586 48.562 55.34 48.658 55.299 48.822 55.227 48.994 55.28 48.994 55.28 48.994 55.28 47.739 55.834 47.521 55.958 47.359 56.047 47.131 56.215 47.158 56.495 47.184 56.63 47.334 56.683 47.463 56.63 47.592 56.567 48.283 56.314 48.435 56.254 48.74 56.141 48.676 56.199 48.799 56.223 48.799 56.223 47.436 56.818 47.331 56.88 47.23 56.939 47.176 57.086 47.176 57.206 47.19 57.36 47.331 57.455 47.466 57.401 47.566 57.366 48.19 57.079 48.368 57.003 48.546 56.924 48.699 57.025 48.699 57.025 48.699 57.025 47.521 57.546 47.493 57.592 47.477 57.606 47.432 57.676 47.449 57.724L45.383 56.992 45.016 59.055 47.873 59.023C47.873 59.023 46.743 65.47 45.855 70.487 46.162 71.796 46.27 73.062 45.098 74.767L45.098 74.767zM53.003 67.774C52.754 66.717 51.501 64.38 52.285 64.317 52.62 64.284 54.488 65.946 55.359 65.946 56.229 65.946 56.457 65.544 56.619 65.261 57.264 64.09 57.603 63.929 57.603 63.929 57.371 64.208 57.168 64.551 56.807 65.267 56.506 65.874 56.145 66.544 55.795 67.287 54.789 69.427 52.602 72.329 52.602 72.329 53.105 71.259 53.162 68.434 53.003 67.774L53.003 67.774zM57.802 66.375C57.809 66.017 57.747 65.79 57.641 65.763 57.583 65.797 57.109 66.216 56.811 67.087 56.539 67.949 56.277 68.603 55.443 70.757 54.062 74.342 53.025 74.935 53.025 74.935 53.246 74.162 52.695 73.178 52.695 73.178 53.946 71.845 57.677 64.975 58.236 64.329 58.795 63.697 58.926 63.948 58.926 63.948 58.292 64.454 57.966 65.378 57.802 66.375L57.802 66.375zM58.715 75.26C58.82 74.856 58.848 69.878 58.848 69.878 59.005 71.746 59.647 76.056 59.647 76.056 58.898 75.979 58.608 75.658 58.715 75.26L58.715 75.26zM62.895 67.74C62.667 66.178 62.64 65.809 62.154 65.04 62.154 65.04 63.236 66.095 63.322 68.058 63.404 70.013 63.205 75.074 63.065 76.442 63.065 76.442 62.213 77.524 61.616 75.673 61.616 75.673 62.213 76.044 62.439 74.596 62.667 73.142 63.123 69.307 62.895 67.74L62.895 67.74zM55.797 46.395C56.817 46.639 57.203 46.484 57.559 46.395 57.471 46.786 56.646 46.771 56.646 46.771 56.817 46.855 57.121 47.193 57.279 47.449 57.622 48.005 56.802 47.692 56.802 47.692 56.749 46.944 55.797 46.395 55.797 46.395L55.797 46.395zM56.072 51.153C56.161 51.553 56.281 52.359 56.437 53.048 56.346 53.161 55.967 53.494 55.628 53.781 56.4 53.128 56.154 51.568 56.072 51.153L56.072 51.153zM47.682 57.811C47.828 57.869 48.141 57.867 48.234 57.833 48.234 57.833 49.018 57.568 49.137 57.534 49.428 57.438 49.424 57.485 49.5 57.267 49.574 57.756 49.865 57.971 50.337 58.036 50.909 58.117 51.236 57.673 51.66 57.681 51.66 57.681 52.135 57.722 52.217 57.712 52.265 57.879 52.312 58.004 52.312 58.004 52.76 58.363 53.058 57.874 52.88 57.522 52.88 57.522 53.137 57.79 53.531 57.814 54.044 57.838 55.154 57.541 55.699 57.36 56.293 57.155 57.443 56.714 57.594 56.345 57.708 56.071 57.132 55.053 56.913 54.446 56.817 54.198 56.787 54.167 56.656 53.819 56.758 54.084 57.016 54.627 57.323 55.227 57.367 55.323 57.419 55.417 57.463 55.517 57.687 55.934 57.922 56.374 58.145 56.746 58.4 57.194 58.639 57.563 58.795 57.727 59.316 58.279 59.771 58.554 60.074 59.101 59.588 58.39 59.07 55.996 58.795 55.092 58.516 54.181 57.603 52.532 57.367 52.103 57.132 51.669 56.742 50.254 56.685 49.779 56.609 49.158 56.701 48.387 56.701 48.387 56.701 48.387 57.703 51.377 57.802 51.805 57.899 52.238 58.943 55.482 59.157 55.934 59.372 56.386 60.728 60.14 61.083 60.54 61.19 60.619 61.507 60.969 61.794 61.32 62.17 61.764 62.549 62.266 62.953 62.909 62.568 62.387 62.023 62.201 62.023 62.201 61.6 61.885 61.623 61.699 61.586 61.492 61.498 61.009 61.083 60.54 61.083 60.54 60.881 60.383 60.707 60.164 60.541 59.916 60.381 59.665 60.229 59.378 60.074 59.101 60.074 59.101 59.111 58.231 58.506 57.937 57.831 57.609 57.484 57.423 56.998 57.632 55.489 58.305 53.922 58.375 53.785 58.354 52.422 58.136 53.266 58.78 53.266 58.78 54.015 58.93 53.943 59.199 55.737 59.284 57.407 59.368 57.631 59.393 58.533 59.564 59.431 59.735 59.914 60.25 59.914 60.25 59 59.952 58.352 59.812 57.07 60.05 55.095 60.404 53.266 58.78 53.266 58.78 52.035 58.214 52.189 58.973 52.36 59.159 52.62 59.447 52.839 59.581 52.839 59.581 51.989 59.284 52.376 59.845 52.376 59.845 52.948 60.14 53.333 60.472 53.333 60.472 55.65 62.605 57.299 62.958 58.308 62.791 58.451 62.763 58.752 62.649 58.885 62.681 58.51 62.835 58.39 62.967 58.264 63.071 57.766 63.481 56.582 63.69 55.667 63.816 54.49 63.979 53.266 63.699 52.88 63.398 52.62 63.186 52.541 62.466 53.064 62.311 53.771 62.099 53.943 61.865 53.976 61.454 53.998 61.173 53.333 60.472 53.333 60.472 52.265 59.87 51.863 60.265 51.863 60.265L52.229 58.2 52.135 58.2 51.396 58.194C51.121 58.194 51.182 58.185 50.87 58.209 50.682 58.223 50.48 58.248 50.275 58.214 50.238 58.209 50.2 58.194 50.166 58.185L49.377 58.18C49.396 58.071 49.41 57.987 49.428 57.885 49.264 57.799 49.137 57.722 49.137 57.722 49.137 57.722 48.936 57.727 48.758 57.79 48.546 57.867 48.163 57.978 48.163 57.978L47.682 57.811zM58.674 61.774C58.674 61.774 57.597 62.487 56.035 61.584 54.459 60.685 53.895 60.25 53.762 60.14 53.762 60.14 55.316 60.873 56.342 60.65 57.367 60.436 57.772 60.22 58.723 60.233 58.723 60.233 57.162 60.699 57.257 61.536 57.293 61.854 57.955 61.942 58.674 61.774L58.674 61.774zM34.614 56.64C34.63 56.615 34.646 56.579 34.658 56.556 34.646 56.579 34.63 56.615 34.614 56.64M31.105 49.874C31.105 49.874 31.227 51.438 31.781 51.717 32.402 52.03 32.803 52.783 33.657 52.368 33.657 52.368 36.791 49.433 36.793 48.195 36.371 47.928 36.23 47.487 36.203 47.422 36.463 47.964 36.986 48.254 37.321 47.959 38.094 47.279 38.087 47.149 38.087 47.149 38.565 47.239 39.088 46.675 39.068 46.532 39.053 46.373 38.974 46.229 38.869 46.157 39.379 46.508 39.588 45.802 39.588 45.802 39.832 45.658 39.9 45.484 39.9 45.484L39.816 45.395C40.592 45.484 41.272 45.098 41.272 45.098 41.352 45.028 41.357 44.97 41.33 44.915 41.272 44.801 41.051 44.734 41.051 44.734 41.051 44.734 39.164 44.853 39.046 44.883 38.634 44.982 38.827 45.359 38.814 45.6 38.798 45.905 38.688 46.007 38.688 46.007 38.809 45.741 38.766 45.645 38.647 45.383 38.538 45.144 38.347 45.233 38.418 45.074 38.494 44.907 38.634 44.734 39.058 44.672 39.389 44.631 39.812 44.014 39.839 43.556 39.842 43.435 39.803 43.375 39.734 43.353 39.525 43.283 39.092 43.531 38.924 43.625 38.777 43.72 38.121 43.878 38.121 43.878 38.121 43.878 38.381 43.824 38.661 43.671 38.935 43.517 39.463 43.201 39.618 43.201 39.771 43.201 40.338 43.081 40.514 43.081 41.455 42.77 41.01 42.375 40.801 42.36 40.703 42.353 39.7 42.55 39.559 42.55 39.383 42.55 37.704 43.338 37.496 43.437 37.289 43.544 36.754 44.778 36.686 45.016 36.613 45.25 36.346 45.954 36.346 45.954 35.875 45.841 35.637 46.304 35.445 46.538 35.219 46.8 34.305 47.979 34.146 48.15 33.985 48.328 32.709 49.117 32.709 49.117 32.372 49.712 32.594 50.155 32.563 50.095 32.563 50.095 32.271 49.772 32.365 49.261 32.365 49.261 32.49 48.91 32.396 48.659 32.314 48.54 32.192 48.366 32.153 48.305 32.074 48.199 32.003 48.114 31.967 48.072 31.967 48.072 30.926 47.408 31.105 49.874"/>
    <path fill="#FFFFFE" d="M37.154 55.35C37.185 55.705 37.219 56.104 37.26 56.532 36.17 56.671 35.122 56.863 34.293 57.025 33.865 57.394 33.182 57.732 32.471 57.999L32.478 57.997C32.522 58.276 32.625 58.491 32.73 58.481 32.73 58.481 35.021 58.476 37.41 58.261 37.516 59.402 37.633 60.675 37.75 61.981L37.75 61.974C37.868 62.251 38.094 64.358 37.975 64.556 37.979 64.554 37.979 64.543 37.979 64.541 37.979 64.551 37.979 64.556 37.982 64.561 37.979 64.561 37.979 64.56 37.975 64.556 35.802 61.467 32.644 60.248 30.815 59.775 30.31 59.737 30 59.73 29.908 60.554 29.908 60.554 29.805 61.806 29.85 62.475 29.891 62.994 30.15 63.9 30.488 64.008 30.827 64.117 31.234 64.04 31.234 64.04 31.135 64.064 30.824 64.262 30.627 64.394 30.434 64.527 30.007 64.772 29.836 65.069 29.663 65.366 30.477 65.156 30.477 65.156 30.513 65.402 30.918 65.313 30.918 65.313 30.918 65.313 30.953 65.911 32.266 65.211 33.008 64.816 33.372 64.461 33.941 64.283 33.753 64.345 33.4 64.618 33.163 64.816 32.721 65.172 32.422 65.47 32.003 65.801 31.618 66.099 30.337 66.626 29.385 66.879 29.559 67.067 29.959 66.925 29.959 66.925 29.954 69.242 33.496 67.303 33.496 67.303 30.639 69.632 29.503 67.326 28.799 68.266 32.109 70.514 35.705 66.554 36.422 65.778 37.25 64.896 38.309 65.071 38.309 65.071 38.309 65.071 38.295 65.942 38.199 67.05 38.199 67.043 38.203 67.028 38.203 67.021 38.502 70.365 38.754 73.123 38.789 73.51 38.9 74.603 38.9 75.005 38.508 75.2 37.967 75.468 37.633 75.436 37.089 75.054 36.749 74.815 36.458 74.535 36.203 74.241 36.2 74.243 36.197 74.251 36.197 74.253L36.203 74.241C35.831 73.809 35.56 73.365 35.383 73.031 35.848 73.334 36.219 73.351 36.457 73.303 36.484 73.296 36.542 73.281 36.542 73.281 36.682 73.24 36.764 73.188 36.771 73.18L36.932 73.062 36.764 72.959C36.733 72.939 36.706 72.92 36.676 72.901 36.676 72.905 36.672 72.905 36.672 72.905L36.672 72.901C35.024 71.803 34.698 69.89 34.633 69.213 34.689 69.681 34.918 70.666 35.848 71.194 37.444 69.178 38.029 67.718 37.191 66.756 36.815 66.324 35.451 67.08 34.604 67.67 33.985 68.102 33.372 68.56 32.406 69.359 31.535 70.083 29.713 71.882 29.713 71.882 29.713 71.882 31.693 69.275 30.643 69.403 29.979 69.722 29.61 70.738 29.047 71.734 28.585 72.66 28.609 72.862 27.744 73.267 27.701 75.119 31.212 73.047 32.481 71.777 33.235 71.021 33.466 70.744 33.683 70.131L33.616 70.309C33.471 70.722 33.393 71.12 33.356 71.5 32.875 71.922 33.069 71.78 32.654 72.069 32.632 72.088 32.58 72.127 32.5 72.189 31.904 72.635 29.824 74.217 27.999 75.005 27.179 75.355 28.057 76.76 28.057 76.76 27.904 77.703 29.252 78.657 29.252 78.657 29.252 78.657 29.914 78.879 30.502 78.498 31.162 78.746 32.22 78.319 33.209 77.76 34.478 77.037 35.623 76.099 35.623 76.099 35.266 75.735 34.994 75.642 34.698 75.519 34.698 75.519 34.325 75.393 33.682 75.519 33.03 75.642 32.129 76.01 30.633 76.975 30.633 76.975 32.055 75.7 33.332 74.326 33.705 73.922 33.35 73.053 33.35 72.199 33.428 73.645 34.136 74.62 34.146 74.637L34.462 75.068 34.385 74.54C34.322 74.12 34.368 73.592 34.423 73.202 34.847 74.473 35.289 75.292 35.687 75.836L35.691 75.836 35.691 75.841C36.091 76.386 36.444 76.664 36.699 76.859 37.467 77.457 38.647 78.257 39.465 78.801L39.465 78.804 39.468 78.804C39.99 79.151 40.363 79.392 40.373 79.399L40.466 79.459 40.539 79.377C40.561 79.356 42.544 77.314 43.549 76.083 43.955 75.581 44.69 74.677 44.947 72.002 45.087 72.373 45.244 72.87 45.281 73.301L45.306 73.6C45.303 73.636 45.299 73.653 45.292 73.687L45.306 73.595 45.328 73.827 45.538 73.335C45.547 73.318 45.987 72.262 45.784 70.891 45.643 69.926 45.183 68.803 44.023 67.771L43.722 67.497 43.809 67.901C43.809 67.924 44.362 70.532 42.605 72.289L42.469 72.431 42.65 72.51C42.674 72.522 43.284 72.768 43.971 72.052 43.809 72.655 43.458 73.633 42.763 74.405 42.318 74.897 42.002 75.012 41.409 74.865 40.982 74.767 40.895 74.376 40.756 73.291 40.666 72.572 39.44 63.804 38.646 58.118 41.067 57.796 43.362 57.267 43.362 57.267 43.474 57.252 43.53 56.997 43.498 56.7 43.46 56.396 43.348 56.16 43.238 56.17 43.238 56.17 40.849 56.177 38.408 56.408 38.35 55.996 38.295 55.622 38.248 55.28 38.335 55.283 38.427 55.288 38.499 55.283 38.254 55.297 37.907 55.258 37.602 55.258 37.408 55.258 37.287 55.297 37.154 55.35M23.023 76.212C23.201 75.7 23.113 73.855 23.113 73.855 23.113 74.151 23.051 75.2 22.348 76.328 22.098 76.724 21.817 78.274 21.817 78.274 21.817 78.274 21.992 78.684 22.643 78.512 22.578 77.418 22.758 76.977 23.023 76.212M33.536 53.93C33.536 53.93 32.096 54.53 31.609 54.83 30.729 55.36 30.414 56.3 30.369 56.615 30.294 57.187 30.239 57.777 31.654 57.278 34.201 56.386 34.165 56.204 34.165 56.204 33.78 55.928 34.215 54.051 34.215 54.051 34.093 53.873 33.536 53.93 33.536 53.93"/>
    <polyline fill="#FFFFFE" points="52.128 14.341 58.752 14.338 58.759 14.348 57.285 20.784 57.271 20.813 57.279 20.801 57.275 20.817 57.293 20.784 61.387 15.621 61.4 15.621 65.533 20.808 64.033 14.353 64.041 14.348 70.67 14.341 64.686 11.492 68.824 6.305 62.865 9.2 61.402 2.73 59.95 9.192 53.99 6.288 53.979 6.302 58.114 11.479 58.114 11.486 52.128 14.341"/>
    <path fill="#FFFFFE" d="M58.848 101.806C54.616 105.074 49.137 107.039 43.143 107.039 37.154 107.039 31.668 105.074 27.435 101.806 23.205 105.074 17.723 107.039 11.727 107.039 11.273 107.039 10.907 107.029 10.454 107.009 11.946 108.745 13.571 110.358 15.328 111.835 19.961 111.233 24.035 109.442 27.435 106.817 31.668 110.081 37.154 112.053 43.143 112.053 49.137 112.053 54.616 110.081 58.848 106.817 62.252 109.442 66.333 111.229 70.961 111.831 72.711 110.354 74.338 108.745 75.828 107.009 75.381 107.029 75.018 107.039 74.561 107.039 68.564 107.039 63.081 105.074 58.848 101.806M75.833 107.009L75.855 106.981C75.846 106.991 75.835 107.002 75.828 107.009L75.833 107.009M30.333 36.913C30.333 36.913 29.954 37.144 29.713 37.114 29.713 37.114 29.226 37.484 29.075 37.911 28.993 38.137 28.94 38.233 28.814 38.358 28.674 38.506 28.519 38.578 28.519 38.578 28.519 38.67 28.494 38.759 28.448 38.857 28.35 39.046 28.2 39.304 28.068 39.436 27.863 39.644 27.842 39.889 27.881 39.971 27.99 40.123 27.881 40.186 27.838 40.385 27.799 40.535 27.894 40.885 27.888 41.037 27.863 41.444 27.806 41.502 27.707 41.68 27.601 41.866 27.763 42.074 27.763 42.074 27.717 42.122 27.603 42.184 27.525 42.201 27.799 42.867 28.568 42.787 28.889 42.748 29.006 42.734 29.361 42.768 29.572 42.791 29.824 42.818 30.297 42.931 30.516 42.885 31.172 42.763 30.966 42.141 30.943 41.941 30.896 41.735 30.523 41.451 30.523 41.451 30.523 41.451 30.844 41.588 31.135 41.593L31.101 41.434C31.101 41.434 31.005 41.401 30.844 41.36 30.656 41.318 30.239 41.304 30.239 41.304 30.239 41.304 30.824 41.191 31.217 41.244L31.135 40.728C31.945 40.745 31.787 40.273 31.672 40.019 31.603 39.875 31.48 39.555 31.394 39.238 31.335 39.002 31.276 38.814 31.276 38.782 31.276 38.759 31.36 38.585 31.335 38.451 31.234 37.93 31.256 37.049 31.256 37.049 31.064 37.049 30.836 36.913 30.836 36.913 30.836 36.913 30.581 37.026 30.333 36.913M30.695 39.197C30.595 39.258 30.523 39.289 30.388 39.219 30.219 39.14 30.388 38.961 29.954 38.898 29.954 38.898 30.025 38.827 30.239 38.775 30.578 38.674 30.832 38.824 30.832 38.824 30.832 38.824 30.807 39.132 30.695 39.197M30.861 38.73C30.656 38.701 30.554 38.58 30.273 38.638 29.993 38.689 29.747 38.715 29.504 38.65 29.504 38.65 29.799 38.573 29.977 38.47 30.15 38.365 30.611 38.177 31.244 38.515 31.244 38.515 31.064 38.759 30.861 38.73"/>
    <path fill="#FFFFFE" d="M58.848 91.785C54.616 95.049 49.137 97.024 43.143 97.024 37.154 97.024 31.668 95.049 27.435 91.785 23.205 95.049 17.723 97.024 11.727 97.024 8.788 97.024 6.011 96.553 3.408 95.681L3.404 95.681C4.261 97.701 5.268 99.639 6.409 101.485 8.139 101.843 9.879 102.035 11.727 102.035 17.723 102.035 23.205 100.063 27.435 96.796 31.668 100.063 37.154 102.035 43.143 102.035 49.137 102.035 54.616 100.063 58.848 96.796 63.081 100.063 68.564 102.035 74.561 102.035 76.409 102.035 78.143 101.843 79.879 101.485 81.019 99.639 82.025 97.701 82.879 95.681 80.275 96.546 77.5 97.024 74.561 97.024 68.564 97.024 63.081 95.049 58.848 91.785M25.266 41.311C25.288 41.133 25.299 41.09 25.334 40.925 25.416 40.519 25.607 40.201 25.607 40.201 25.174 41.664 25.855 42.182 25.741 42.102 25.741 42.102 25.522 41.528 25.878 41.085 25.878 41.085 25.775 41.552 25.905 41.68 25.905 41.68 25.922 41.247 26.177 40.919 26.391 40.636 26.454 40.485 26.52 40.208 26.604 39.838 26.65 39.68 26.739 39.535 26.739 39.535 26.646 39.74 26.623 40.156 26.614 40.407 26.607 40.434 26.536 40.636 26.387 41.053 26.11 41.851 26.726 42.275 26.726 42.275 26.4 41.606 26.73 41.182 26.73 41.182 26.657 41.851 27.024 41.994 27.024 41.994 26.903 41.485 27.098 41.07 27.231 40.791 27.231 40.461 27.234 40.342 27.234 40.342 27.354 40.791 27.234 41.09 27.133 41.333 27.163 41.675 27.341 41.844 27.341 41.844 27.215 41.63 27.436 41.326 27.662 41.025 27.792 40.663 27.717 40.348 27.616 39.92 27.318 39.72 27.842 39.021 27.842 39.021 27.754 39.535 27.833 39.831 27.816 39.749 27.809 39.634 27.85 39.477 27.953 39.062 28.068 39.178 27.953 38.725 27.877 38.438 28.182 38.157 28.182 38.157 28.182 38.157 28.147 38.204 28.141 38.365 28.141 38.438 28.199 38.546 28.227 38.617 28.26 38.713 28.272 38.922 28.272 38.922 28.361 38.776 28.328 38.431 28.318 38.19 28.298 37.883 28.459 37.583 28.459 37.583 28.459 37.583 28.428 37.698 28.445 38.023 28.455 38.24 28.519 38.414 28.519 38.578 28.519 38.578 28.681 38.539 28.703 38.116 28.727 37.758 28.845 37.623 28.814 37.33 29.014 37.566 28.896 38.11 28.896 38.11 29.176 37.763 29.043 37.595 28.998 37.306 28.954 37.042 29.255 36.857 29.255 36.857 29.129 36.98 29.17 37.276 29.323 37.291 29.463 37.306 29.713 37.114 29.713 37.114 29.713 37.114 30.201 37.004 30.201 36.585 30.201 36.585 30.405 37.057 30.718 36.666 30.718 36.666 30.721 36.823 30.836 36.913 31.24 37.047 31.061 36.322 31.061 36.322 31.061 36.322 31.162 36.382 31.244 36.5 31.456 36.79 31.34 36.267 31.34 36.267 31.053 35.746 29.928 35.5 29.392 35.44 28.86 35.377 28.257 35.348 27.648 35.377 26.806 35.427 26.408 35.781 26.018 36.107 25.645 36.418 25.293 37.108 24.936 38.639 24.582 40.174 24.193 41.394 24.193 41.593 24.221 42.628 25.181 42.057 25.266 41.311M33.869 59.134C32.707 58.576 31.759 58.241 31.759 58.241 30.007 58.676 31.101 59.371 31.344 59.475 32.143 59.805 33.334 60.426 34.589 61.222 35.875 62.042 37.693 63.234 37.742 62.027 37.105 60.88 35.339 59.831 33.869 59.134M22.19 19.591C20.259 19.591 18.507 18.846 17.193 17.643 18.784 19.636 21.275 20.89 24.027 20.89 28.824 20.89 32.707 17.004 32.707 12.205 32.707 7.406 28.824 3.516 24.027 3.516 21.298 3.516 18.784 4.798 17.193 6.77 18.507 5.562 20.259 4.822 22.19 4.822 26.264 4.822 29.567 8.127 29.567 12.205 29.567 16.281 26.264 19.591 22.19 19.591M24.6 44.187C24.529 43.64 25 43.496 25.238 43.399 25.238 43.399 24.887 43.407 24.338 43.864 24.162 44.008 23.861 44.286 23.684 44.498 23.092 45.241 22.316 46.328 21.992 47.448 21.344 49.688 21.287 50.63 21.227 51.925 21.188 52.747 20.959 55.677 20.898 57.546 20.857 58.777 20.795 59.563 20.785 60.142 20.76 60.716 20.655 77.461 20.655 77.461L20.968 73.6 21.879 64.247C21.879 64.247 22.316 60.68 22.402 58.435 22.49 56.199 22.668 51.925 22.758 51.31 22.843 50.686 23.195 49.097 23.521 48.714L23.082 62.627C23.082 62.627 23.195 65.66 23.227 66.754 23.227 66.754 23.113 73.556 23.113 73.855L23.994 78.51C24.26 78.649 24.675 78.684 25.174 78.307L24.641 76.892 23.879 72.737C23.879 72.737 24.107 72.71 24.289 72.527 24.473 72.351 24.582 71.912 24.582 71.912 24.641 70.497 25.998 62.418 26.469 61.003 26.939 59.588 27.119 55.934 30.646 53.752 30.646 53.752 30.239 53.342 29.531 53.224 28.824 53.104 29.006 53.043 29.006 53.043 29.271 52.612 28.53 51.57 28.53 51.57 27.685 50.196 27.201 49.972 26.529 49.193 25.645 48.176 26.469 47.861 26.469 47.861 26.623 48.547 26.879 48.861 27.231 49.35 27.587 49.842 28.53 51.57 28.53 51.57 28.53 51.57 28.889 49.078 27.156 47.031 26.732 46.532 26.322 46.12 25.96 45.775 25.807 45.633 25.666 45.496 25.533 45.375 25.334 45.192 24.935 44.788 24.905 44.739 24.855 44.686 24.859 44.648 24.827 44.597 24.971 44.739 25.192 44.886 25.525 45.028 26.9 45.624 28.266 45.906 28.951 45.313 29.18 45.154 29.198 44.599 29.129 44.445 29.019 44.196 28.84 44.086 29.019 43.57 29.08 43.396 29.144 43.194 28.678 43.168 28.137 43.137 27.727 42.796 27.631 42.63 27.573 42.538 27.527 42.199 27.527 42.199 27.527 42.199 27.332 42.244 27.215 42.198 27.215 42.198 27.006 42.464 26.832 42.372 26.832 42.372 26.463 42.604 26.056 42.401L25.483 42.575C25.483 42.962 25.238 43.399 25.238 43.399 25.238 43.399 24.775 43.985 24.6 44.187M26.944 52.164C27.548 53.603 28.602 53.296 28.602 53.296 26.6 54.231 25.855 57.749 25.855 57.749 26.039 54.86 27.354 54.07 26.944 52.164M25.483 45.78C25.483 45.78 25.249 45.682 24.887 45.522 24.586 45.383 24.176 45.233 23.936 44.788 23.802 44.45 24.187 44.008 24.363 43.864 24.363 43.864 23.789 44.498 25.483 45.78M43.144 117.06C37.154 117.06 31.668 115.092 27.436 111.824 25.389 113.407 23.046 114.681 20.494 115.581L20.489 115.581C22.077 116.558 23.734 117.436 25.451 118.216 26.141 117.789 26.808 117.324 27.436 116.842 31.668 120.099 37.154 122 43.144 122 49.137 122 54.619 120.099 58.857 116.842 59.485 117.324 60.145 117.789 60.837 118.216 62.549 117.436 64.207 116.561 65.797 115.581 63.243 114.681 60.898 113.407 58.857 111.824 54.619 115.092 49.137 117.06 43.144 117.06"/>
    <g transform="translate(0 34)">
      <mask id="aak-byvaaben-mellem-negativ-d" fill="#fff">
        <use xlink:href="#aak-byvaaben-mellem-negativ-c"/>
      </mask>
      <path fill="#FFFFFE" d="M57.528 7.521C57.419 7.261 57.398 6.646 57.296 6.255 57.241 6.044 57.02 5.732 56.807 5.436 56.807 5.436 57.027 5.709 57.446 5.964 57.826 6.195 58.137 6.683 58.145 6.904 58.145 6.904 58.031 6.702 57.772 6.741 57.583 6.764 57.471 7.162 57.528 7.521 57.913 7.972 58.01 7.355 58.01 7.355 58.01 7.355 58.182 7.492 58.092 7.729 58.092 7.729 58.335 7.998 58.627 7.647 58.816 7.418 58.838 6.595 57.955 5.964 57.077 5.328 57.102 4.848 57.102 4.848 57.102 4.848 57.361 5.229 57.859 5.422 58.352 5.619 58.588 5.879 58.728 6.21 58.728 6.21 58.643 6.019 58.205 5.952 58.205 5.952 59.237 7.035 58.921 7.709 58.921 7.709 59.354 7.346 59.075 6.735 59.075 6.735 59.401 7.011 59.401 7.282 59.401 7.282 59.741 6.824 59.003 6.06 58.619 5.655 58.656 5.453 58.574 5.303 58.494 5.149 58.396 5.069 58.145 4.817 57.899 4.571 57.884 4.291 57.747 3.948 57.747 3.948 57.831 4.168 58.105 4.322 58.105 4.322 58.212 3.631 57.969 3.332 57.969 3.332 58.232 3.623 58.301 3.896 58.369 4.168 58.547 4.486 58.67 4.652 58.795 4.817 58.937 5.067 58.879 5.504 58.82 5.952 59.222 6.075 59.319 6.171 59.415 6.265 59.896 6.637 59.828 7.219 59.828 7.219 60.092 6.827 59.678 6.143 59.268 5.453 59.439 5.291 59.47 5.219 59.47 5.219 59.552 5.672 59.924 5.824 59.924 5.824 60.019 5.574 59.415 4.858 58.811 4.142 58.396 3.453 58.42 2.615 58.42 2.615 58.451 2.93 58.937 3.216 58.937 3.216 58.766 2.794 58.699 2.531 58.631 2.267 58.508 1.28 56.951.986 56.437.953 54.534 1.269 54.094 1.589 53.656 1.907 53.15 2.507 53.205 3.196 53.215 3.322 53.552 4.024 53.635 4.086 53.643 4.168 53.643 4.248 53.645 4.328 53.648 4.441 53.648 4.529 53.645 4.549 53.635 4.639 53.531 4.858 53.625 4.94 53.675 4.985 53.703 5.07 53.703 5.162 53.703 5.422 53.427 6.417 53.427 6.601 53.427 6.788 53.468 7.022 53.796 6.981 53.917 6.959 54.015 6.931 54.083 6.899 54.094 7.001 54.086 7.247 54.076 7.333 54.195 7.215 54.343 7.236 54.477 7.236 54.696 7.236 55.083 7.277 55.083 7.277 55.083 7.277 54.76 7.348 54.534 7.394 54.315 7.435 54.217 7.415 54.217 7.415L54.172 7.627C54.172 7.627 54.65 7.595 54.869 7.424 54.869 7.424 54.75 7.659 54.578 7.729 54.363 7.817 54.261 7.646 54.172 7.627 54.172 7.627 54.384 7.697 54.399 7.955 54.425 8.221 54.281 8.623 54.701 8.661 54.917 8.685 55.17 8.7 55.406 8.702 55.635 8.702 55.847 8.69 55.97 8.652 56.202 8.584 57.342 8.09 57.528 7.521M55.051 5.021C54.908 5.162 55.016 5.391 54.687 5.415 54.399 5.438 54.305 4.991 54.305 4.991 54.305 4.991 54.657 4.826 54.947 4.841 55.218 4.857 55.293 4.944 55.293 4.944 55.293 4.944 55.156 4.916 55.051 5.021M54.104 4.935C53.926 4.94 53.796 4.845 53.796 4.845 54.1 4.617 54.614 4.438 54.896 4.451 55.412 4.475 55.631 4.855 55.631 4.855 54.75 4.511 54.285 4.923 54.104 4.935M55.783 3.826C55.645 3.787 55.108 3.995 54.616 3.804 54.131 3.804 53.598 3.248 53.598 3.248 53.563 3.083 53.588 3.049 53.689 3.076 53.793 3.108 53.857 3.276 53.936 3.388 54.015 3.505 54.233 3.688 54.616 3.804 54.616 3.553 54.449 3.387 54.449 3.387 54.449 3.387 54.664 3.611 54.876 3.664 56.15 3.948 55.478 3.358 55.478 3.358 56.407 3.773 56.134 4.27 56.369 4.807 56.257 4.639 56.228 4.393 56.134 4.202 55.963 3.864 55.783 3.826 55.783 3.826M78.494 51.233L70.637 51.233 70.637 46.44 62.785 46.44 62.785 51.233 54.929 51.233 54.929 46.44 47.071 46.44 47.071 51.233 39.215 51.233 39.215 46.44 31.362 46.44 31.362 51.233 23.502 51.233 23.502 46.44 15.648 46.44 15.648 51.233 7.793 51.233 7.793 46.44.031 46.44C.147 49.711.629 52.891 1.436 55.935 4.566 57.268 8.034 58.013 11.725 58.013 17.713 58.013 23.195 56.042 27.428 52.778 31.664 56.042 37.146 58.013 43.139 58.013L43.152 58.013C49.144 58.013 54.619 56.042 58.859 52.778 63.091 56.042 68.573 58.013 74.566 58.013 78.244 58.013 81.721 57.268 84.845 55.935 85.654 52.891 86.137 49.711 86.256 46.44L78.494 46.44 78.494 51.233" mask="url(#aak-byvaaben-mellem-negativ-d)"/>
    </g>
    <path fill="#FFFFFE" d="M26.687 45.71C26.209 45.617 26.353 45.932 26.51 46.089 27.45 47.031 28.902 48.926 28.965 50.604 28.965 50.604 30.059 51.012 30.25 49.423 30.362 48.47 30.034 46.863 29.863 46.424 29.863 46.424 29.982 46.657 30.328 47.549 30.807 48.813 30.627 49.261 30.836 50.414 30.923 50.175 30.962 49.878 30.991 49.58 31.005 49.292 31.025 48.988 31.035 48.726 31.076 47.865 31.046 47.118 30.902 46.797 30.729 46.386 30.633 46.188 30.554 46.093 30.477 45.988 29.353 44.558 29.353 44.558 29.291 44.893 29.144 45.139 28.951 45.313 28.523 45.836 27.611 45.889 26.687 45.71M56.027 45.347C56.433 45.458 56.975 45.576 57.462 45.595 57.975 45.546 58.494 45.434 58.807 45.224 59.053 45.062 59.336 44.778 59.574 44.466 59.682 44.332 59.771 44.187 59.85 44.047 59.878 43.997 59.885 43.951 59.907 43.9 59.965 43.691 59.986 43.3 59.408 42.861 59.18 42.697 58.916 42.117 58.895 42.074 58.656 42.153 58.444 41.977 58.444 41.977 58.139 42.068 57.99 41.873 57.99 41.873 57.881 41.902 57.638 41.844 57.528 41.521 57.654 41.998 56.678 42.464 56.322 42.914 56.021 43.291 55.819 42.818 55.633 43.035 55.633 43.329 55.758 43.423 55.748 43.58 55.748 43.58 55.737 44.081 55.707 44.23 55.64 44.541 55.532 45.224 56.027 45.347M62.833 78.011C62.762 77.674 62.621 77.714 62.272 77.856 62.018 77.963 61.541 77.74 61.25 77.674 60.971 77.608 60.931 77.7 60.685 77.751 60.44 77.806 60.092 77.714 60.092 77.714 59.381 77.623 59.439 78.407 59.439 78.407 59.465 78.502 59.511 78.582 59.559 78.657 59.729 78.787 59.885 78.818 59.996 78.874 60.092 78.924 60.078 78.982 60.129 79.071 60.129 79.071 61.042 79.73 61.555 79.159 61.674 78.9 61.001 78.472 61.072 78.51 61.072 78.51 61.416 78.676 61.623 78.924 61.832 79.175 62.161 79.344 62.379 79.122 62.573 78.826 61.857 78.345 61.857 78.345 61.857 78.345 62.193 78.51 62.398 78.765 62.617 79.033 62.806 79.124 62.893 78.772 62.762 78.461 62.423 78.209 62.423 78.209 62.423 78.209 62.578 78.291 62.748 78.454 62.954 78.649 63.127 78.591 63.076 78.242 63.027 78.153 62.833 78.011 62.833 78.011"/>
  </g>
</svg>
